<svg version="1.1" id="Layer_1" xmlns="http://www.w3.org/2000/svg" xmlns:xlink="http://www.w3.org/1999/xlink" x="0px" y="0px"
	 width="100%" viewBox="0 0 300 300" enable-background="new 0 0 300 300" xml:space="preserve">
<path fill="#3C4F98" opacity="1.000000" stroke="none" 
	d="
M0.999999,289.000000 
	C1.000000,250.312439 1.000000,211.624878 1.291219,172.308258 
	C3.024946,170.316833 4.491824,168.979233 5.906056,167.588120 
	C15.931503,157.726639 25.946163,147.854202 36.346657,137.971283 
	C39.398014,137.639008 42.860809,136.118408 44.573109,137.248993 
	C48.306606,139.714111 51.186920,143.492584 54.345886,146.801208 
	C58.066143,150.697693 61.590256,154.788818 65.425026,158.566528 
	C69.266930,162.351273 73.487656,165.750198 77.354156,169.511673 
	C80.626015,172.694626 83.456436,176.342148 86.814819,179.421326 
	C88.866791,181.302719 91.547348,182.498535 94.031723,184.463928 
	C94.439529,197.580170 94.761200,210.234741 94.871124,223.154449 
	C94.804176,229.324722 97.345367,231.724854 104.175346,231.916672 
	C110.779816,232.102158 117.392128,232.008087 124.070480,232.368195 
	C132.277283,241.040375 140.495453,249.304428 148.515884,257.756104 
	C152.212296,261.651245 155.521774,265.913544 158.838959,270.295898 
	C151.563980,277.765015 144.417389,284.909393 137.384583,292.164062 
	C136.064224,293.526093 135.198349,295.328674 133.844452,296.830536 
	C133.022202,296.505371 132.478256,296.277649 131.503021,296.046082 
	C121.630089,296.347076 112.189499,296.867828 102.746559,296.914948 
	C77.663177,297.040192 52.574345,297.230682 27.497206,296.817383 
	C18.685724,296.672211 8.936942,298.056854 2.405965,289.408722 
	C2.170240,289.096588 1.478963,289.128479 0.999999,289.000000 
z"/>
<path fill="#5B71C6" opacity="1.000000" stroke="none" 
	d="
M301.000000,181.000000 
	C301.000000,190.020889 301.000000,199.041794 300.638641,208.514542 
	C298.403748,207.696411 296.268494,206.688461 294.695496,205.117554 
	C266.553345,177.013000 238.486832,148.832718 210.354507,120.718300 
	C209.506317,119.870651 208.123001,119.558487 207.013397,118.605812 
	C206.944305,116.663338 206.850983,115.111725 207.001236,113.258682 
	C206.636124,110.554115 206.784027,107.431969 205.295166,105.865280 
	C196.074097,96.162125 186.533829,86.759010 176.981430,77.376534 
	C174.805695,75.239487 172.119568,73.849945 168.729721,75.833542 
	C165.334534,72.690170 162.187012,69.755714 159.130508,66.729340 
	C152.789780,60.451099 146.544159,54.076309 140.172226,47.830189 
	C133.454056,41.244663 126.558838,34.838833 119.880646,28.213694 
	C113.560463,21.943716 107.391808,15.519499 101.233719,9.089175 
	C100.276260,8.089388 99.731026,6.694840 99.455986,5.396375 
	C108.609680,5.356156 117.302567,5.402405 126.020447,5.781999 
	C127.165688,7.712265 128.078217,9.516635 129.436081,10.876218 
	C184.991333,66.501373 240.581314,122.091843 296.208221,177.645340 
	C297.567017,179.002335 299.392273,179.892242 301.000000,181.000000 
z"/>
<path fill="#5168C2" opacity="1.000000" stroke="none" 
	d="
M0.999999,60.000000 
	C1.000000,44.312439 1.000000,28.624876 1.345107,12.422613 
	C4.451859,10.229381 7.213505,8.550848 10.040760,7.222696 
	C18.027481,15.795481 25.878695,24.086695 33.887779,32.222496 
	C43.435421,41.921200 53.030277,51.576965 62.769680,61.082268 
	C71.077087,69.189987 79.618057,77.058403 87.883499,85.318039 
	C77.477142,95.749481 67.242996,105.895561 56.842377,115.750587 
	C50.778946,109.459824 44.872929,103.468964 38.987400,97.458046 
	C32.291664,90.619652 25.706015,83.670494 18.900890,76.943077 
	C13.059485,71.168381 6.976279,65.638275 0.999999,60.000000 
z"/>
<path fill="#5369C2" opacity="1.000000" stroke="none" 
	d="
M301.000000,284.000000 
	C301.000000,285.389008 301.000000,286.777985 300.668488,288.649658 
	C296.631287,291.425659 293.107666,295.241730 289.183838,295.710999 
	C279.556458,296.862274 269.744568,296.470886 259.982849,296.361053 
	C259.288300,294.532959 258.962433,292.708923 257.892395,291.608490 
	C249.991089,283.482513 242.006332,275.434784 233.921463,267.491028 
	C224.547745,258.280945 214.959015,249.288284 205.659882,240.004639 
	C203.381424,237.729950 201.866943,234.690002 200.359436,231.943619 
	C206.438324,229.769958 207.939468,227.357773 207.001831,221.474518 
	C207.311676,219.122055 207.739685,217.180496 207.782364,215.230469 
	C207.937195,208.155380 207.962860,201.077454 208.372009,194.066193 
	C210.363022,195.479706 212.152084,196.694580 213.655823,198.195328 
	C240.950684,225.436050 268.198700,252.723724 295.511108,279.946838 
	C297.104431,281.534973 299.159698,282.659637 301.000000,284.000000 
z"/>
<path fill="#586EC4" opacity="1.000000" stroke="none" 
	d="
M206.989166,118.996666 
	C208.123001,119.558487 209.506317,119.870651 210.354507,120.718300 
	C238.486832,148.832718 266.553345,177.013000 294.695496,205.117554 
	C296.268494,206.688461 298.403748,207.696411 300.638641,208.983200 
	C301.000000,221.687561 301.000000,234.375122 300.662170,247.467224 
	C298.783234,246.642349 297.094849,245.557388 295.724274,244.160614 
	C284.703308,232.928848 273.844635,221.536240 262.735809,210.392700 
	C250.117081,197.734497 237.362518,185.209137 224.520599,172.777283 
	C219.222931,167.648758 213.543976,162.914108 207.954041,157.538055 
	C207.869644,145.560303 207.869644,134.044815 207.869644,122.251251 
	C204.493896,122.082703 201.729538,121.944687 199.099670,121.560379 
	C199.549225,120.649185 199.864319,119.984283 200.599548,119.249237 
	C203.009506,119.118294 204.999329,119.057480 206.989166,118.996666 
z"/>
<path fill="#556BC3" opacity="1.000000" stroke="none" 
	d="
M208.038452,158.000320 
	C213.543976,162.914108 219.222931,167.648758 224.520599,172.777283 
	C237.362518,185.209137 250.117081,197.734497 262.735809,210.392700 
	C273.844635,221.536240 284.703308,232.928848 295.724274,244.160614 
	C297.094849,245.557388 298.783234,246.642349 300.662170,247.935883 
	C301.000000,259.687561 301.000000,271.375122 301.000000,283.531342 
	C299.159698,282.659637 297.104431,281.534973 295.511108,279.946838 
	C268.198700,252.723724 240.950684,225.436050 213.655823,198.195328 
	C212.152084,196.694580 210.363022,195.479706 208.286865,193.604004 
	C207.924118,181.384277 207.981277,169.692291 208.038452,158.000320 
z"/>
<path fill="#4F66C2" opacity="1.000000" stroke="none" 
	d="
M0.999999,60.468658 
	C6.976279,65.638275 13.059485,71.168381 18.900890,76.943077 
	C25.706015,83.670494 32.291664,90.619652 38.987400,97.458046 
	C44.872929,103.468964 50.778946,109.459824 56.675179,116.034271 
	C49.771053,123.734413 42.867657,130.859833 35.964264,137.985260 
	C25.946163,147.854202 15.931503,157.726639 5.906056,167.588120 
	C4.491824,168.979233 3.024946,170.316833 1.291219,171.839600 
	C1.000000,134.979111 1.000000,97.958214 0.999999,60.468658 
z"/>
<path fill="#5D72C7" opacity="1.000000" stroke="none" 
	d="
M301.000000,180.531738 
	C299.392273,179.892242 297.567017,179.002335 296.208221,177.645340 
	C240.581314,122.091843 184.991333,66.501373 129.436081,10.876218 
	C128.078217,9.516635 127.165688,7.712265 126.478119,5.685528 
	C131.271255,5.194060 135.631729,5.132406 140.394379,5.091351 
	C141.862473,5.222128 142.928421,5.332308 144.018402,5.776378 
	C145.044754,7.589893 145.839050,9.277204 147.079300,10.519213 
	C196.533401,60.043571 246.017624,109.537926 295.569580,158.964340 
	C296.982910,160.374054 299.172424,161.005615 301.000000,162.000000 
	C301.000000,168.021149 301.000000,174.042297 301.000000,180.531738 
z"/>
<path fill="#5F74C8" opacity="1.000000" stroke="none" 
	d="
M301.000000,161.531738 
	C299.172424,161.005615 296.982910,160.374054 295.569580,158.964340 
	C246.017624,109.537926 196.533401,60.043571 147.079300,10.519213 
	C145.839050,9.277204 145.044754,7.589893 144.479767,5.678198 
	C151.275742,5.311104 157.634415,5.376079 164.018219,5.774897 
	C165.160782,7.704332 166.070221,9.507524 167.425766,10.865390 
	C210.318069,53.831074 253.246811,96.760414 296.214172,139.651016 
	C297.571411,141.005814 299.394226,141.894196 301.000000,143.000000 
	C301.000000,149.021149 301.000000,155.042297 301.000000,161.531738 
z"/>
<path fill="#6176C9" opacity="1.000000" stroke="none" 
	d="
M301.000000,142.531738 
	C299.394226,141.894196 297.571411,141.005814 296.214172,139.651016 
	C253.246811,96.760414 210.318069,53.831074 167.425766,10.865390 
	C166.070221,9.507524 165.160782,7.704332 164.479645,5.677466 
	C170.942490,5.313705 176.969055,5.381217 183.020432,5.782085 
	C184.164215,7.710986 185.076248,9.513044 186.432343,10.871947 
	C222.987411,47.502644 259.579956,84.095970 296.212524,120.649162 
	C297.570648,122.004341 299.393646,122.893608 301.000000,124.000000 
	C301.000000,130.021149 301.000000,136.042297 301.000000,142.531738 
z"/>
<path fill="#657ACC" opacity="1.000000" stroke="none" 
	d="
M301.000000,81.000000 
	C301.000000,88.687576 301.000000,96.375153 300.634827,104.513657 
	C299.015839,104.247047 297.530090,103.762398 296.541962,102.778122 
	C267.524475,73.874779 238.526093,44.952019 209.623886,15.933542 
	C206.441513,12.738370 203.855499,8.949219 201.454803,5.338271 
	C209.607376,5.306076 217.298050,5.371154 225.014404,5.770403 
	C226.041458,7.584388 226.836182,9.270098 228.074905,10.513466 
	C250.524185,33.046650 273.004547,55.549110 295.571655,77.964096 
	C296.988464,79.371361 299.172760,80.005943 301.000000,81.000000 
z"/>
<path fill="#6378CB" opacity="1.000000" stroke="none" 
	d="
M200.992905,5.435544 
	C203.855499,8.949219 206.441513,12.738370 209.623886,15.933542 
	C238.526093,44.952019 267.524475,73.874779 296.541962,102.778122 
	C297.530090,103.762398 299.015839,104.247047 300.634827,104.982292 
	C301.000000,111.021156 301.000000,117.042305 301.000000,123.531731 
	C299.393646,122.893608 297.570648,122.004341 296.212524,120.649162 
	C259.579956,84.095970 222.987411,47.502644 186.432343,10.871947 
	C185.076248,9.513044 184.164215,7.710986 183.264816,5.671353 
	C183.654236,5.173179 183.824066,5.119094 184.461533,5.086060 
	C190.283752,5.216588 195.638321,5.326066 200.992905,5.435544 
z"/>
<path fill="#687DCE" opacity="1.000000" stroke="none" 
	d="
M301.000000,80.531342 
	C299.172760,80.005943 296.988464,79.371361 295.571655,77.964096 
	C273.004547,55.549110 250.524185,33.046650 228.074905,10.513466 
	C226.836182,9.270098 226.041458,7.584388 225.407135,5.674467 
	C226.846573,5.181995 227.918915,5.119630 229.460144,5.077743 
	C238.614548,5.208151 247.300064,5.318081 255.995712,5.773362 
	C258.708130,9.552200 261.161377,13.223217 264.163452,16.370760 
	C270.846863,23.377937 277.662598,30.273582 284.697632,36.925735 
	C289.908630,41.853123 295.550232,46.325127 301.000000,51.000000 
	C301.000000,60.687561 301.000000,70.375122 301.000000,80.531342 
z"/>
<path fill="#6C81D1" opacity="1.000000" stroke="none" 
	d="
M301.000000,50.531342 
	C295.550232,46.325127 289.908630,41.853123 284.697632,36.925735 
	C277.662598,30.273582 270.846863,23.377937 264.163452,16.370760 
	C261.161377,13.223217 258.708130,9.552200 256.457916,5.675412 
	C265.497040,5.205149 274.084076,5.186051 282.671082,5.148973 
	C290.948517,5.113233 297.340668,8.243967 301.000000,16.000000 
	C301.000000,27.354227 301.000000,38.708454 301.000000,50.531342 
z"/>
<path fill="#42538B" opacity="1.000000" stroke="none" 
	d="
M260.006927,296.700134 
	C269.744568,296.470886 279.556458,296.862274 289.183838,295.710999 
	C293.107666,295.241730 296.631287,291.425659 300.668488,289.066162 
	C301.000000,290.388885 301.000000,291.777802 300.655609,293.454651 
	C298.207458,296.161743 296.103729,298.580872 294.000000,301.000000 
	C239.312439,301.000000 184.624878,301.000000 129.632172,300.716675 
	C130.196136,298.972198 131.065231,297.511047 131.934311,296.049896 
	C132.478256,296.277649 133.022202,296.505371 134.299438,296.826355 
	C163.363083,296.919861 191.693466,296.942841 220.023788,296.910461 
	C233.351578,296.895264 246.679214,296.773560 260.006927,296.700134 
z"/>
<path fill="#344371" opacity="1.000000" stroke="none" 
	d="
M131.503021,296.046082 
	C131.065231,297.511047 130.196136,298.972198 129.163513,300.716675 
	C88.979103,301.000000 48.958210,301.000000 8.519367,300.651245 
	C5.734279,298.201660 3.367140,296.100830 1.000000,294.000000 
	C1.000000,292.611115 1.000000,291.222198 0.999999,289.416656 
	C1.478963,289.128479 2.170240,289.096588 2.405965,289.408722 
	C8.936942,298.056854 18.685724,296.672211 27.497206,296.817383 
	C52.574345,297.230682 77.663177,297.040192 102.746559,296.914948 
	C112.189499,296.867828 121.630089,296.347076 131.503021,296.046082 
z"/>
<path fill="#93A1D6" opacity="1.000000" stroke="none" 
	d="
M9.975151,6.872316 
	C7.213505,8.550848 4.451859,10.229381 1.345107,11.953957 
	C1.000000,10.933331 1.000000,9.866661 1.242436,8.741288 
	C3.656581,6.121723 5.828290,3.560862 8.000000,1.000000 
	C31.354227,1.000000 54.708454,1.000000 78.473358,1.345750 
	C78.585831,2.819112 78.287628,3.946723 77.522621,5.096169 
	C71.034554,5.245264 65.013298,5.372523 58.531982,5.394473 
	C45.109283,5.242785 32.145435,5.087218 19.184883,5.230090 
	C16.109312,5.263994 13.044767,6.298220 9.975151,6.872316 
z"/>
<path fill="#A5B1E2" opacity="1.000000" stroke="none" 
	d="
M301.000000,15.555836 
	C297.340668,8.243967 290.948517,5.113233 282.671082,5.148973 
	C274.084076,5.186051 265.497040,5.205149 256.447815,5.330060 
	C247.300064,5.318081 238.614548,5.208151 229.462860,4.670668 
	C228.997787,3.162076 228.998901,2.081038 229.000000,1.000000 
	C250.354233,1.000000 271.708466,1.000000 293.201447,1.255479 
	C295.893463,3.673970 298.446747,5.836982 301.000000,7.999997 
	C301.000000,10.370558 301.000000,12.741115 301.000000,15.555836 
z"/>
<path fill="#98A5D8" opacity="1.000000" stroke="none" 
	d="
M77.989433,5.074334 
	C78.287628,3.946723 78.585831,2.819112 78.942017,1.345750 
	C99.020897,1.000000 119.041786,1.000000 139.531311,1.406108 
	C139.997360,2.898395 139.994781,3.984574 139.992203,5.070752 
	C135.631729,5.132406 131.271255,5.194060 126.453110,5.352183 
	C117.302567,5.402405 108.609680,5.356156 98.995132,5.289694 
	C91.378784,5.204431 84.684113,5.139383 77.989433,5.074334 
z"/>
<path fill="#A0ACDD" opacity="1.000000" stroke="none" 
	d="
M228.531342,1.000000 
	C228.998901,2.081038 228.997787,3.162076 228.993988,4.650189 
	C227.918915,5.119630 226.846573,5.181995 225.381470,5.340297 
	C217.298050,5.371154 209.607376,5.306076 201.454803,5.338271 
	C195.638321,5.326066 190.283752,5.216588 184.463333,4.677974 
	C183.998337,3.165891 183.999161,2.082946 184.000000,1.000000 
	C198.687561,1.000000 213.375122,1.000000 228.531342,1.000000 
z"/>
<path fill="#9CA9DB" opacity="1.000000" stroke="none" 
	d="
M183.531342,1.000000 
	C183.999161,2.082946 183.998337,3.165891 183.995697,4.656923 
	C183.824066,5.119094 183.654236,5.173179 183.240005,5.337996 
	C176.969055,5.381217 170.942490,5.313705 164.454498,5.343624 
	C157.634415,5.376079 151.275742,5.311104 144.455719,5.344308 
	C142.928421,5.332308 141.862473,5.222128 140.394379,5.091351 
	C139.994781,3.984574 139.997360,2.898395 139.999969,1.406108 
	C154.354233,1.000000 168.708450,1.000000 183.531342,1.000000 
z"/>
<path fill="#000000" opacity="1.000000" stroke="none" 
	d="
M301.000000,7.502092 
	C298.446747,5.836982 295.893463,3.673970 293.670105,1.255479 
	C296.247650,1.000000 298.495270,1.000000 301.000000,1.000000 
	C301.000000,2.998142 301.000000,5.001166 301.000000,7.502092 
z"/>
<path fill="#000000" opacity="1.000000" stroke="none" 
	d="
M294.497925,301.000000 
	C296.103729,298.580872 298.207458,296.161743 300.655609,293.871307 
	C301.000000,296.247650 301.000000,298.495270 301.000000,301.000000 
	C299.001862,301.000000 296.998840,301.000000 294.497925,301.000000 
z"/>
<path fill="#000000" opacity="1.000000" stroke="none" 
	d="
M1.000000,294.497925 
	C3.367140,296.100830 5.734279,298.201660 8.050709,300.651245 
	C5.752364,301.000000 3.504728,301.000000 1.000000,301.000000 
	C1.000000,299.001862 1.000000,296.998840 1.000000,294.497925 
z"/>
<path fill="#000000" opacity="1.000000" stroke="none" 
	d="
M7.502095,1.000000 
	C5.828290,3.560862 3.656581,6.121723 1.242436,8.341292 
	C1.000000,5.752362 1.000000,3.504725 1.000000,1.000000 
	C2.998142,1.000000 5.001166,1.000000 7.502095,1.000000 
z"/>
<path fill="#F1F1F2" opacity="1.000000" stroke="none" 
	d="
M207.954041,157.538055 
	C207.981277,169.692291 207.924118,181.384277 207.952103,193.538422 
	C207.962860,201.077454 207.937195,208.155380 207.782364,215.230469 
	C207.739685,217.180496 207.311676,219.122055 206.713074,221.619781 
	C205.227585,223.320648 204.089478,224.469223 202.490021,225.689484 
	C168.764023,225.825165 135.499146,225.952301 102.235283,225.820663 
	C99.847313,225.811203 97.466835,223.910614 95.082870,222.889328 
	C94.761200,210.234741 94.439529,197.580170 94.121658,184.002487 
	C94.137856,158.678772 94.125961,134.278107 94.174416,109.877563 
	C94.194176,99.923172 94.344757,89.969040 94.669868,79.789566 
	C96.524689,76.107231 99.373253,74.962997 103.028137,74.978737 
	C110.349930,75.010269 117.672371,74.891602 125.459267,74.902077 
	C137.448776,74.969223 148.973557,74.969223 160.639740,74.969223 
	C160.842667,78.166428 160.998260,80.617836 161.074463,83.525497 
	C160.971207,93.809731 160.905792,103.637856 160.939423,113.465637 
	C160.958847,119.143242 163.443527,121.898476 168.991623,121.950722 
	C178.981476,122.044800 188.973862,121.869461 198.965179,121.806671 
	C201.729538,121.944687 204.493896,122.082703 207.869644,122.251251 
	C207.869644,134.044815 207.869644,145.560303 207.954041,157.538055 
M141.041290,100.104614 
	C140.961884,98.517776 140.882492,96.930931 140.775482,94.792442 
	C133.482101,94.792442 126.561310,95.073891 119.676300,94.698784 
	C114.637512,94.424263 113.049751,96.310120 114.280128,101.803726 
	C114.795418,102.180016 115.306793,102.877953 115.826576,102.884277 
	C123.417694,102.976685 131.010880,103.034462 138.600449,102.909821 
	C139.363022,102.897293 140.105240,101.646446 141.041290,100.104614 
M114.361031,120.736198 
	C115.067177,121.138588 115.768684,121.881081 116.480186,121.890785 
	C123.626587,121.988213 130.776398,122.044113 137.920212,121.885666 
	C138.915253,121.863594 139.883179,120.619408 141.050827,119.109764 
	C141.974686,114.383301 139.781799,112.965019 135.319061,113.211716 
	C130.365585,113.485542 125.385139,113.260063 120.416496,113.273071 
	C113.790115,113.290421 113.723915,113.370132 114.361031,120.736198 
M115.386383,195.712830 
	C122.681389,198.775986 129.902847,195.947067 132.979752,188.732666 
	C134.264175,185.721054 135.354691,182.626755 137.034302,178.270966 
	C138.841171,183.567825 139.823349,187.440063 141.496948,190.985962 
	C142.523407,193.160751 144.609177,194.835587 146.219254,196.734924 
	C147.908646,195.099228 149.970108,193.704163 151.214249,191.780502 
	C154.338348,186.950027 156.382889,186.771698 160.071396,191.497314 
	C164.719574,197.452454 180.372223,199.504974 187.443802,194.495575 
	C189.089813,190.026794 186.263565,188.706833 182.784119,188.402802 
	C179.152527,188.085464 175.454376,188.524719 171.823990,188.200455 
	C170.023849,188.039673 167.807938,187.379883 166.641266,186.137299 
	C160.217560,179.295792 156.533325,178.331680 147.460968,182.033783 
	C146.081711,178.193192 145.161377,174.095764 143.163467,170.617249 
	C141.873276,168.370941 138.978226,165.634888 136.849945,165.674500 
	C134.678299,165.714890 131.849457,168.488190 130.593781,170.771805 
	C128.716110,174.186600 127.832878,178.183441 126.767311,181.999908 
	C125.634628,186.056702 123.911011,188.583908 118.947456,188.496765 
	C114.553467,188.419601 113.476006,190.853455 115.386383,195.712830 
z"/>
<path fill="#4F67C2" opacity="1.000000" stroke="none" 
	d="
M259.982849,296.361023 
	C246.679214,296.773560 233.351578,296.895264 220.023788,296.910461 
	C191.693466,296.942841 163.363083,296.919861 134.577728,296.923767 
	C135.198349,295.328674 136.064224,293.526093 137.384583,292.164062 
	C144.417389,284.909393 151.563980,277.765015 159.125504,270.127869 
	C171.171143,258.149597 182.773956,246.637314 194.328232,235.076538 
	C195.107452,234.296875 195.520325,233.151093 196.459061,232.100922 
	C197.518143,231.844330 198.221741,231.662415 199.186874,231.626190 
	C199.632675,231.848572 199.816940,231.925232 200.001221,232.001892 
	C201.866943,234.690002 203.381424,237.729950 205.659882,240.004639 
	C214.959015,249.288284 224.547745,258.280945 233.921463,267.491028 
	C242.006332,275.434784 249.991089,283.482513 257.892395,291.608490 
	C258.962433,292.708923 259.288300,294.532959 259.982849,296.361023 
z"/>
<path fill="#405298" opacity="1.000000" stroke="none" 
	d="
M94.435829,80.014786 
	C94.344757,89.969040 94.194176,99.923172 94.174416,109.877563 
	C94.125961,134.278107 94.137856,158.678772 94.035522,183.540833 
	C91.547348,182.498535 88.866791,181.302719 86.814819,179.421326 
	C83.456436,176.342148 80.626015,172.694626 77.354156,169.511673 
	C73.487656,165.750198 69.266930,162.351273 65.425026,158.566528 
	C61.590256,154.788818 58.066143,150.697693 54.345886,146.801208 
	C51.186920,143.492584 48.306606,139.714111 44.573109,137.248993 
	C42.860809,136.118408 39.398014,137.639008 36.346657,137.971283 
	C42.867657,130.859833 49.771053,123.734413 56.841644,116.325317 
	C67.242996,105.895561 77.477142,95.749481 88.164047,85.144722 
	C90.556480,83.128952 92.496155,81.571869 94.435829,80.014786 
z"/>
<path fill="#3F5198" opacity="1.000000" stroke="none" 
	d="
M196.103592,232.175568 
	C195.520325,233.151093 195.107452,234.296875 194.328232,235.076538 
	C182.773956,246.637314 171.171143,258.149597 159.293243,269.841339 
	C155.521774,265.913544 152.212296,261.651245 148.515884,257.756104 
	C140.495453,249.304428 132.277283,241.040375 124.538605,232.344849 
	C148.659363,232.051926 172.381485,232.113754 196.103592,232.175568 
z"/>
<path fill="#293460" opacity="1.000000" stroke="none" 
	d="
M196.459061,232.100922 
	C172.381485,232.113754 148.659363,232.051926 124.469124,232.013443 
	C117.392128,232.008087 110.779816,232.102158 104.175346,231.916672 
	C97.345367,231.724854 94.804176,229.324722 94.871124,223.154449 
	C97.466835,223.910614 99.847313,225.811203 102.235283,225.820663 
	C135.499146,225.952301 168.764023,225.825165 202.356812,226.005737 
	C201.431747,227.993713 200.178558,229.737106 198.925354,231.480484 
	C198.221741,231.662415 197.518143,231.844330 196.459061,232.100922 
z"/>
<path fill="#586EC5" opacity="1.000000" stroke="none" 
	d="
M161.153854,83.069244 
	C160.998260,80.617836 160.842667,78.166428 160.639740,74.969223 
	C148.973557,74.969223 137.448776,74.969223 125.386276,74.572311 
	C122.570541,71.350197 120.515480,68.304169 117.974854,65.739067 
	C108.346916,56.018322 98.567444,46.447533 88.833321,36.832123 
	C81.903389,29.986700 74.852272,23.259916 68.059914,16.280987 
	C64.793343,12.924684 61.999798,9.107990 58.992046,5.499783 
	C65.013298,5.372523 71.034554,5.245264 77.522621,5.096169 
	C84.684113,5.139383 91.378784,5.204431 98.534317,5.376161 
	C99.731026,6.694840 100.276260,8.089388 101.233719,9.089175 
	C107.391808,15.519499 113.560463,21.943716 119.880646,28.213694 
	C126.558838,34.838833 133.454056,41.244663 140.172226,47.830189 
	C146.544159,54.076309 152.789780,60.451099 159.130508,66.729340 
	C162.187012,69.755714 165.334534,72.690170 168.766495,76.083923 
	C169.044556,76.663475 168.996948,76.825340 168.664719,77.154175 
	C165.971329,79.237167 163.562592,81.153206 161.153854,83.069244 
z"/>
<path fill="#F1F1F2" opacity="1.000000" stroke="none" 
	d="
M168.949356,76.987213 
	C168.996948,76.825340 169.044556,76.663475 169.055374,76.251221 
	C172.119568,73.849945 174.805695,75.239487 176.981430,77.376534 
	C186.533829,86.759010 196.074097,96.162125 205.295166,105.865280 
	C206.784027,107.431969 206.636124,110.554115 206.556854,113.182144 
	C193.603683,113.239868 181.338455,113.072701 169.110916,112.442749 
	C169.082199,100.315712 169.015778,88.651459 168.949356,76.987213 
z"/>
<path fill="#343F69" opacity="1.000000" stroke="none" 
	d="
M169.073227,112.905533 
	C181.338455,113.072701 193.603683,113.239868 206.313293,113.483574 
	C206.850983,115.111725 206.944305,116.663338 207.013397,118.605812 
	C204.999329,119.057480 203.009506,119.118294 200.119797,119.165314 
	C191.145798,119.117050 183.058914,118.795700 175.002258,119.154137 
	C170.056427,119.374176 168.407379,117.499840 169.073227,112.905533 
z"/>
<path fill="#556BC3" opacity="1.000000" stroke="none" 
	d="
M58.531982,5.394473 
	C61.999798,9.107990 64.793343,12.924684 68.059914,16.280987 
	C74.852272,23.259916 81.903389,29.986700 88.833321,36.832123 
	C98.567444,46.447533 108.346916,56.018322 117.974854,65.739067 
	C120.515480,68.304169 122.570541,71.350197 124.921555,74.505157 
	C117.672371,74.891602 110.349930,75.010269 103.028137,74.978737 
	C99.373253,74.962997 96.524689,76.107231 94.669868,79.789566 
	C92.496155,81.571869 90.556480,83.128952 88.336258,84.859360 
	C79.618057,77.058403 71.077087,69.189987 62.769680,61.082268 
	C53.030277,51.576965 43.435421,41.921200 33.887779,32.222496 
	C25.878695,24.086695 18.027481,15.795481 10.040760,7.222696 
	C13.044767,6.298220 16.109312,5.263994 19.184883,5.230090 
	C32.145435,5.087218 45.109283,5.242785 58.531982,5.394473 
z"/>
<path fill="#344371" opacity="1.000000" stroke="none" 
	d="
M199.186874,231.626190 
	C200.178558,229.737106 201.431747,227.993713 202.818161,225.934082 
	C204.089478,224.469223 205.227585,223.320648 206.654449,222.026794 
	C207.939468,227.357773 206.438324,229.769958 200.359436,231.943619 
	C199.816940,231.925232 199.632675,231.848572 199.186874,231.626190 
z"/>
<path fill="#48599B" opacity="1.000000" stroke="none" 
	d="
M169.110916,112.442741 
	C168.407379,117.499840 170.056427,119.374176 175.002258,119.154137 
	C183.058914,118.795700 191.145798,119.117050 199.699677,119.235458 
	C199.864319,119.984283 199.549225,120.649185 199.099670,121.560379 
	C188.973862,121.869461 178.981476,122.044800 168.991623,121.950722 
	C163.443527,121.898476 160.958847,119.143242 160.939423,113.465637 
	C160.905792,103.637856 160.971207,93.809731 161.074463,83.525497 
	C163.562592,81.153206 165.971329,79.237167 168.664719,77.154175 
	C169.015778,88.651459 169.082199,100.315712 169.110916,112.442741 
z"/>
<path fill="#435598" opacity="1.000000" stroke="none" 
	d="
M186.914932,195.017288 
	C180.372223,199.504974 164.719574,197.452454 160.071396,191.497314 
	C156.382889,186.771698 154.338348,186.950027 151.214249,191.780502 
	C149.970108,193.704163 147.908646,195.099228 146.219254,196.734924 
	C144.609177,194.835587 142.523407,193.160751 141.496948,190.985962 
	C139.823349,187.440063 138.841171,183.567825 137.034302,178.270966 
	C135.354691,182.626755 134.264175,185.721054 132.979752,188.732666 
	C129.902847,195.947067 122.681389,198.775986 115.615616,195.292419 
	C116.645744,194.658920 117.479492,194.180634 118.242302,194.275116 
	C123.848793,194.969513 125.747505,191.553055 126.957245,186.934677 
	C127.921211,183.254593 128.868454,179.423615 130.725952,176.175980 
	C131.949554,174.036652 134.753220,171.574203 136.890335,171.535797 
	C138.949951,171.498779 141.763107,173.980057 142.993469,176.086166 
	C145.039551,179.588608 146.084839,183.675705 147.535583,187.474655 
	C158.481720,184.751129 158.984650,184.989746 167.147308,192.409805 
	C168.414444,193.561676 170.724594,193.809814 172.600693,194.000320 
	C177.357483,194.483383 182.141693,194.696243 186.914932,195.017288 
z"/>
<path fill="#323D66" opacity="1.000000" stroke="none" 
	d="
M187.179367,194.756439 
	C182.141693,194.696243 177.357483,194.483383 172.600693,194.000320 
	C170.724594,193.809814 168.414444,193.561676 167.147308,192.409805 
	C158.984650,184.989746 158.481720,184.751129 147.535583,187.474655 
	C146.084839,183.675705 145.039551,179.588608 142.993469,176.086166 
	C141.763107,173.980057 138.949951,171.498779 136.890335,171.535797 
	C134.753220,171.574203 131.949554,174.036652 130.725952,176.175980 
	C128.868454,179.423615 127.921211,183.254593 126.957245,186.934677 
	C125.747505,191.553055 123.848793,194.969513 118.242302,194.275116 
	C117.479492,194.180634 116.645744,194.658920 115.457352,194.945831 
	C113.476006,190.853455 114.553467,188.419601 118.947456,188.496765 
	C123.911011,188.583908 125.634628,186.056702 126.767311,181.999908 
	C127.832878,178.183441 128.716110,174.186600 130.593781,170.771805 
	C131.849457,168.488190 134.678299,165.714890 136.849945,165.674500 
	C138.978226,165.634888 141.873276,168.370941 143.163467,170.617249 
	C145.161377,174.095764 146.081711,178.193192 147.460968,182.033783 
	C156.533325,178.331680 160.217560,179.295792 166.641266,186.137299 
	C167.807938,187.379883 170.023849,188.039673 171.823990,188.200455 
	C175.454376,188.524719 179.152527,188.085464 182.784119,188.402802 
	C186.263565,188.706833 189.089813,190.026794 187.179367,194.756439 
z"/>
<path fill="#39446B" opacity="1.000000" stroke="none" 
	d="
M114.172813,119.962341 
	C113.723915,113.370132 113.790115,113.290421 120.416496,113.273071 
	C125.385139,113.260063 130.365585,113.485542 135.319061,113.211716 
	C139.781799,112.965019 141.974686,114.383301 140.579361,119.375443 
	C131.462875,119.748199 122.817841,119.855270 114.172813,119.962341 
z"/>
<path fill="#323D66" opacity="1.000000" stroke="none" 
	d="
M114.161293,100.996460 
	C113.049751,96.310120 114.637512,94.424263 119.676300,94.698784 
	C126.561310,95.073891 133.482101,94.792442 140.775482,94.792442 
	C140.882492,96.930931 140.961884,98.517776 140.570892,100.388000 
	C131.454102,100.779747 122.807701,100.888107 114.161293,100.996460 
z"/>
<path fill="#435598" opacity="1.000000" stroke="none" 
	d="
M114.266922,120.349274 
	C122.817841,119.855270 131.462875,119.748199 140.485779,119.791046 
	C139.883179,120.619408 138.915253,121.863594 137.920212,121.885666 
	C130.776398,122.044113 123.626587,121.988213 116.480186,121.890785 
	C115.768684,121.881081 115.067177,121.138588 114.266922,120.349274 
z"/>
<path fill="#405298" opacity="1.000000" stroke="none" 
	d="
M114.220711,101.400093 
	C122.807701,100.888107 131.454102,100.779747 140.478714,100.820831 
	C140.105240,101.646446 139.363022,102.897293 138.600449,102.909821 
	C131.010880,103.034462 123.417694,102.976685 115.826576,102.884277 
	C115.306793,102.877953 114.795418,102.180016 114.220711,101.400093 
z"/>
</svg>